<svg width="40" height="48" viewBox="0 0 40 48" fill="none" xmlns="http://www.w3.org/2000/svg">
<path d="M38.2591 16.3632C37.9812 16.5792 33.0751 19.3488 33.0751 25.5072C33.0751 32.6304 39.3179 35.1504 39.5048 35.2128C39.476 35.3664 38.513 38.664 36.2133 42.024C34.1627 44.9808 32.021 47.9328 28.763 47.9328C25.505 47.9328 24.6666 46.0368 20.9055 46.0368C17.2403 46.0368 15.9371 47.9952 12.957 47.9952C9.9769 47.9952 7.89754 45.2592 5.50676 41.8992C2.73747 37.9536 0.5 31.824 0.5 26.0064C0.5 16.6752 6.55602 11.7264 12.5162 11.7264C15.6832 11.7264 18.3231 13.8096 20.3114 13.8096C22.2039 13.8096 25.1553 11.6016 28.7582 11.6016C30.1237 11.6016 35.0299 11.7264 38.2591 16.3632ZM27.0478 7.6512C28.5378 5.88 29.5919 3.4224 29.5919 0.9648C29.5919 0.624 29.5631 0.2784 29.5009 0C27.0765 0.0912 24.1923 1.6176 22.4531 3.6384C21.0876 5.1936 19.8131 7.6512 19.8131 10.1424C19.8131 10.5168 19.8754 10.8912 19.9042 11.0112C20.0575 11.04 20.3066 11.0736 20.5558 11.0736C22.731 11.0736 25.4667 9.6144 27.0478 7.6512Z" fill="black"/>
</svg>
