<svg width="21" height="20" viewBox="0 0 21 20" fill="none" xmlns="http://www.w3.org/2000/svg">
<path d="M16.2498 9.95833C16.7944 9.95833 17.3515 10.1746 17.7693 10.5326C18.1853 10.8891 18.4332 11.3577 18.4333 11.8538V13.7913H18.9333C19.0562 13.7913 19.2193 13.8575 19.3611 14.0072C19.4998 14.1537 19.5837 14.3454 19.5837 14.5374V17.8919C19.5836 18.0148 19.5175 18.1779 19.3679 18.3197C19.2214 18.4583 19.0296 18.5413 18.8376 18.5413H13.5671C13.4443 18.5413 13.2812 18.4761 13.1394 18.3265C13.0007 18.1801 12.9169 17.9882 12.9167 17.7962V14.4417C12.9167 14.3168 12.9842 14.1497 13.1296 14.0042C13.2751 13.8589 13.4423 13.7913 13.5671 13.7913H14.0671V11.8538C14.0672 11.3578 14.3143 10.8891 14.7302 10.5326C15.1479 10.1745 15.7052 9.95842 16.2498 9.95833ZM19.5544 2.47103C19.5728 2.56138 19.5837 2.65486 19.5837 2.75032V8.25618C19.3021 8.02413 18.995 7.82056 18.6667 7.64974V3.76497L17.9021 4.24251L10.4998 8.86849L3.09839 4.24251L2.33374 3.76497V14.7503H9.99976V15.6663H2.83374C2.05582 15.6663 1.41693 15.0282 1.41675 14.2503V2.75032C1.41675 2.65523 1.4269 2.56202 1.44507 2.472L2.56812 3.17415L10.2351 7.96614L10.4998 8.13118L10.7654 7.96614L18.4314 3.17415L19.5544 2.47103ZM16.2498 10.1087C15.3056 10.1089 14.3124 10.7222 14.3123 11.8538V13.7913H18.1873V11.8538C18.1871 10.7221 17.194 10.1087 16.2498 10.1087ZM2.83374 1.33333H18.1667C18.769 1.33333 19.2863 1.71654 19.49 2.25032H1.5105C1.71417 1.7166 2.23152 1.33333 2.83374 1.33333Z" fill="#796C6C" stroke="#796C6C"/>
</svg>
