<svg width="54" height="66" viewBox="0 0 54 66" fill="none" xmlns="http://www.w3.org/2000/svg">
<path d="M21.5 15C22.35 15 23.063 14.712 23.639 14.136C24.215 13.56 24.502 12.848 24.5 12C24.498 11.152 24.21 10.44 23.636 9.864C23.062 9.288 22.35 9 21.5 9C20.65 9 19.938 9.288 19.364 9.864C18.79 10.44 18.502 11.152 18.5 12C18.498 12.848 18.786 13.561 19.364 14.139C19.942 14.717 20.654 15.004 21.5 15ZM6.5 66C4.85 66 3.438 65.413 2.264 64.239C1.09 63.065 0.502 61.652 0.5 60V6C0.5 4.35 1.088 2.938 2.264 1.764C3.44 0.59 4.852 0.002 6.5 0H36.5C38.15 0 39.563 0.588 40.739 1.764C41.915 2.94 42.502 4.352 42.5 6V15.3C43.4 15.65 44.125 16.2 44.675 16.95C45.225 17.7 45.5 18.55 45.5 19.5V25.5C45.5 26.45 45.225 27.3 44.675 28.05C44.125 28.8 43.4 29.35 42.5 29.7V33C42.5 33.85 42.212 34.563 41.636 35.139C41.06 35.715 40.348 36.002 39.5 36C38.652 35.998 37.94 35.71 37.364 35.136C36.788 34.562 36.5 33.85 36.5 33V6H6.5V60H9.5C10.35 60 11.063 60.288 11.639 60.864C12.215 61.44 12.502 62.152 12.5 63C12.498 63.848 12.21 64.561 11.636 65.139C11.062 65.717 10.35 66.004 9.5 66H6.5ZM26.975 54L31.4 58.425C31.95 58.975 32.225 59.663 32.225 60.489C32.225 61.315 31.95 62.027 31.4 62.625C30.8 63.225 30.088 63.525 29.264 63.525C28.44 63.525 27.727 63.225 27.125 62.625L20.6 56.1C20 55.5 19.7 54.8 19.7 54C19.7 53.2 20 52.5 20.6 51.9L27.2 45.3C27.8 44.7 28.5 44.412 29.3 44.436C30.1 44.46 30.8 44.773 31.4 45.375C31.95 45.975 32.237 46.675 32.261 47.475C32.285 48.275 31.998 48.975 31.4 49.575L26.975 54ZM46.025 54L41.6 49.575C41.05 49.025 40.775 48.338 40.775 47.514C40.775 46.69 41.05 45.977 41.6 45.375C42.2 44.775 42.913 44.475 43.739 44.475C44.565 44.475 45.277 44.775 45.875 45.375L52.4 51.9C53 52.5 53.3 53.2 53.3 54C53.3 54.8 53 55.5 52.4 56.1L45.8 62.7C45.2 63.3 44.5 63.588 43.7 63.564C42.9 63.54 42.2 63.227 41.6 62.625C41.05 62.025 40.762 61.325 40.736 60.525C40.71 59.725 40.998 59.025 41.6 58.425L46.025 54Z" fill="#E32120"/>
</svg>
