<svg width="21" height="19" viewBox="0 0 21 19" fill="none" xmlns="http://www.w3.org/2000/svg">
<path d="M13.254 7.5C14.22 7.5 15.004 8.284 15.004 9.25V13.999C15.004 15.1927 14.5298 16.3376 13.6857 17.1817C12.8416 18.0258 11.6967 18.5 10.503 18.5C9.30926 18.5 8.16441 18.0258 7.32031 17.1817C6.47621 16.3376 6.002 15.1927 6.002 13.999V9.25C6.002 8.284 6.785 7.5 7.752 7.5H13.254ZM13.254 9H7.752C7.6857 9 7.62211 9.02634 7.57522 9.07322C7.52834 9.12011 7.502 9.1837 7.502 9.25V13.999C7.502 14.7949 7.81818 15.5582 8.38097 16.121C8.94377 16.6838 9.70709 17 10.503 17C11.2989 17 12.0622 16.6838 12.625 16.121C13.1878 15.5582 13.504 14.7949 13.504 13.999V9.25C13.504 9.1837 13.4777 9.12011 13.4308 9.07322C13.3839 9.02634 13.3203 9 13.254 9ZM2.25 7.5H5.631C5.27831 7.92615 5.06286 8.44908 5.013 9H2.25C2.1837 9 2.12011 9.02634 2.07322 9.07322C2.02634 9.12011 2 9.1837 2 9.25V12.499C1.99974 12.8769 2.08519 13.25 2.2499 13.5902C2.41461 13.9304 2.6543 14.2288 2.95095 14.4629C3.2476 14.6971 3.59349 14.861 3.9626 14.9422C4.33171 15.0235 4.71444 15.02 5.082 14.932C5.167 15.436 5.322 15.917 5.535 16.364C5.20433 16.454 4.85933 16.4993 4.5 16.5C3.97463 16.5 3.4544 16.3965 2.96904 16.1954C2.48367 15.9943 2.04267 15.6996 1.67122 15.3281C1.29977 14.9565 1.00516 14.5155 0.804195 14.03C0.603235 13.5446 0.499869 13.0244 0.5 12.499V9.25C0.5 8.284 1.284 7.5 2.25 7.5ZM15.375 7.5H18.75C19.716 7.5 20.5 8.284 20.5 9.25V12.5C20.5001 13.1132 20.3593 13.7182 20.0884 14.2682C19.8175 14.8183 19.4237 15.2987 18.9376 15.6724C18.4514 16.046 17.8858 16.3029 17.2846 16.4232C16.6833 16.5435 16.0625 16.5239 15.47 16.366C15.684 15.918 15.839 15.437 15.925 14.933C16.1097 14.977 16.3013 14.9993 16.5 15C17.163 15 17.7989 14.7366 18.2678 14.2678C18.7366 13.7989 19 13.163 19 12.5V9.25C19 9.1837 18.9737 9.12011 18.9268 9.07322C18.8799 9.02634 18.8163 9 18.75 9H15.993C15.9431 8.44908 15.7277 7.92615 15.375 7.5ZM10.5 0.5C11.2956 0.5 12.0587 0.816071 12.6213 1.37868C13.1839 1.94129 13.5 2.70435 13.5 3.5C13.5 4.29565 13.1839 5.05871 12.6213 5.62132C12.0587 6.18393 11.2956 6.5 10.5 6.5C9.70435 6.5 8.94129 6.18393 8.37868 5.62132C7.81607 5.05871 7.5 4.29565 7.5 3.5C7.5 2.70435 7.81607 1.94129 8.37868 1.37868C8.94129 0.816071 9.70435 0.5 10.5 0.5ZM17 1.5C17.663 1.5 18.2989 1.76339 18.7678 2.23223C19.2366 2.70107 19.5 3.33696 19.5 4C19.5 4.66304 19.2366 5.29893 18.7678 5.76777C18.2989 6.23661 17.663 6.5 17 6.5C16.337 6.5 15.7011 6.23661 15.2322 5.76777C14.7634 5.29893 14.5 4.66304 14.5 4C14.5 3.33696 14.7634 2.70107 15.2322 2.23223C15.7011 1.76339 16.337 1.5 17 1.5ZM4 1.5C4.66304 1.5 5.29893 1.76339 5.76777 2.23223C6.23661 2.70107 6.5 3.33696 6.5 4C6.5 4.66304 6.23661 5.29893 5.76777 5.76777C5.29893 6.23661 4.66304 6.5 4 6.5C3.33696 6.5 2.70107 6.23661 2.23223 5.76777C1.76339 5.29893 1.5 4.66304 1.5 4C1.5 3.33696 1.76339 2.70107 2.23223 2.23223C2.70107 1.76339 3.33696 1.5 4 1.5ZM10.5 2C10.1022 2 9.72064 2.15804 9.43934 2.43934C9.15804 2.72064 9 3.10218 9 3.5C9 3.89782 9.15804 4.27936 9.43934 4.56066C9.72064 4.84196 10.1022 5 10.5 5C10.8978 5 11.2794 4.84196 11.5607 4.56066C11.842 4.27936 12 3.89782 12 3.5C12 3.10218 11.842 2.72064 11.5607 2.43934C11.2794 2.15804 10.8978 2 10.5 2ZM17 3C16.7348 3 16.4804 3.10536 16.2929 3.29289C16.1054 3.48043 16 3.73478 16 4C16 4.26522 16.1054 4.51957 16.2929 4.70711C16.4804 4.89464 16.7348 5 17 5C17.2652 5 17.5196 4.89464 17.7071 4.70711C17.8946 4.51957 18 4.26522 18 4C18 3.73478 17.8946 3.48043 17.7071 3.29289C17.5196 3.10536 17.2652 3 17 3ZM4 3C3.73478 3 3.48043 3.10536 3.29289 3.29289C3.10536 3.48043 3 3.73478 3 4C3 4.26522 3.10536 4.51957 3.29289 4.70711C3.48043 4.89464 3.73478 5 4 5C4.26522 5 4.51957 4.89464 4.70711 4.70711C4.89464 4.51957 5 4.26522 5 4C5 3.73478 4.89464 3.48043 4.70711 3.29289C4.51957 3.10536 4.26522 3 4 3Z" fill="#E32120"/>
</svg>
