<svg width="21" height="22" viewBox="0 0 21 22" fill="none" xmlns="http://www.w3.org/2000/svg">
<path d="M13.5 20.5V12.5C13.5 12.2348 13.3946 11.9804 13.2071 11.7929C13.0196 11.6054 12.7652 11.5 12.5 11.5H8.5C8.23478 11.5 7.98043 11.6054 7.79289 11.7929C7.60536 11.9804 7.5 12.2348 7.5 12.5V20.5" stroke="#E32120" stroke-width="2" stroke-linecap="round" stroke-linejoin="round"/>
<path d="M1.5 9.49997C1.49993 9.20904 1.56333 8.92159 1.68579 8.65768C1.80824 8.39378 1.9868 8.15976 2.209 7.97197L9.209 1.97297C9.56999 1.66788 10.0274 1.50049 10.5 1.50049C10.9726 1.50049 11.43 1.66788 11.791 1.97297L18.791 7.97197C19.0132 8.15976 19.1918 8.39378 19.3142 8.65768C19.4367 8.92159 19.5001 9.20904 19.5 9.49997V18.5C19.5 19.0304 19.2893 19.5391 18.9142 19.9142C18.5391 20.2893 18.0304 20.5 17.5 20.5H3.5C2.96957 20.5 2.46086 20.2893 2.08579 19.9142C1.71071 19.5391 1.5 19.0304 1.5 18.5V9.49997Z" stroke="#E32120" stroke-width="2" stroke-linecap="round" stroke-linejoin="round"/>
</svg>
