<svg width="17" height="22" viewBox="0 0 17 22" fill="none" xmlns="http://www.w3.org/2000/svg">
<path d="M8.50024 1.45833C9.69283 1.45778 10.6961 1.87289 11.5374 2.71419C12.3784 3.5554 12.7924 4.55775 12.7913 5.74935V8.16634H14.2502C14.6432 8.16641 14.9677 8.30089 15.2502 8.58333C15.5329 8.86596 15.6667 9.19026 15.6663 9.58236V19.1663C15.6663 19.5598 15.5323 19.8847 15.2502 20.1673C14.9685 20.4495 14.6441 20.5838 14.2502 20.5833H2.75024C2.3567 20.5833 2.03216 20.4492 1.75024 20.1673C1.46837 19.8854 1.33379 19.5608 1.33325 19.1663V9.58333C1.33325 9.19007 1.4678 8.86629 1.75024 8.58431C1.99791 8.33706 2.27727 8.20302 2.60669 8.17318L2.75024 8.16634H4.20825V5.75032C4.20825 4.55681 4.6236 3.55413 5.46411 2.71419C6.30479 1.87414 7.3073 1.45891 8.50024 1.45833ZM2.25024 19.6663H14.7502V9.08333H2.25024V19.6663ZM8.49829 12.9583C8.89408 12.9593 9.21914 13.0943 9.50024 13.3753C9.78129 13.6564 9.91572 13.9806 9.91626 14.3753C9.91674 14.7691 9.78328 15.0937 9.50122 15.3753C9.21863 15.6574 8.89367 15.7913 8.50024 15.7913H8.49731C8.10899 15.7932 7.78533 15.6604 7.50024 15.3753C7.21532 15.0903 7.08194 14.7664 7.08325 14.3773C7.08468 13.9849 7.21976 13.6592 7.5022 13.3743C7.78216 13.092 8.10459 12.9575 8.49829 12.9583ZM8.50024 2.37532C7.57054 2.37532 6.76348 2.70584 6.10962 3.3597C5.45576 4.01356 5.12524 4.82062 5.12524 5.75032V8.16634H11.8752V5.75032C11.8752 4.82062 11.5438 4.01356 10.8899 3.3597C10.2361 2.70602 9.42974 2.3754 8.50024 2.37532Z" fill="#796C6C" stroke="#796C6C"/>
</svg>
