<svg width="25" height="25" viewBox="0 0 25 25" fill="none" xmlns="http://www.w3.org/2000/svg">
<path d="M11.5 21.5V14.225C11.2 14.0417 10.9583 13.8043 10.775 13.513C10.5917 13.2217 10.5 12.884 10.5 12.5C10.5 11.95 10.696 11.4793 11.088 11.088C11.48 10.6967 11.9507 10.5007 12.5 10.5C13.0493 10.4993 13.5203 10.6953 13.913 11.088C14.3057 11.4807 14.5013 11.9513 14.5 12.5C14.5 12.8833 14.4083 13.225 14.225 13.525C14.0417 13.825 13.8 14.0583 13.5 14.225V21.5C13.5 21.7833 13.404 22.021 13.212 22.213C13.02 22.405 12.7827 22.5007 12.5 22.5C12.2173 22.4993 11.98 22.4033 11.788 22.212C11.596 22.0207 11.5 21.7833 11.5 21.5ZM6.325 19.025C6.125 19.225 5.88333 19.325 5.6 19.325C5.31667 19.325 5.08334 19.2167 4.9 19C4.15 18.1167 3.56234 17.125 3.137 16.025C2.71167 14.925 2.49933 13.75 2.5 12.5C2.5 11.1167 2.76267 9.81667 3.288 8.6C3.81333 7.38334 4.52567 6.325 5.425 5.425C6.32434 4.525 7.38267 3.81267 8.6 3.288C9.81734 2.76333 11.1173 2.50067 12.5 2.5C13.8827 2.49933 15.1827 2.762 16.4 3.288C17.6173 3.814 18.6757 4.52633 19.575 5.425C20.4743 6.32367 21.187 7.382 21.713 8.6C22.239 9.818 22.5013 11.118 22.5 12.5C22.5 13.75 22.2873 14.925 21.862 16.025C21.4367 17.125 20.8493 18.1167 20.1 19C19.9167 19.2167 19.6877 19.3293 19.413 19.338C19.1383 19.3467 18.9007 19.2507 18.7 19.05C18.5167 18.8667 18.425 18.6333 18.425 18.35C18.425 18.0667 18.5167 17.8167 18.7 17.6C19.2667 16.9 19.7083 16.1167 20.025 15.25C20.3417 14.3833 20.5 13.4667 20.5 12.5C20.5 10.2667 19.725 8.375 18.175 6.825C16.625 5.275 14.7333 4.5 12.5 4.5C10.2667 4.5 8.375 5.275 6.825 6.825C5.275 8.375 4.5 10.2667 4.5 12.5C4.5 13.4667 4.65833 14.3793 4.975 15.238C5.29167 16.0967 5.74167 16.8757 6.325 17.575C6.50833 17.7917 6.604 18.0377 6.612 18.313C6.62 18.5883 6.52433 18.8257 6.325 19.025ZM9.15 16.2C8.95 16.4 8.70833 16.5043 8.425 16.513C8.14167 16.5217 7.91667 16.409 7.75 16.175C7.36667 15.6583 7.06233 15.0917 6.837 14.475C6.61167 13.8583 6.49933 13.2 6.5 12.5C6.5 10.8333 7.08333 9.41667 8.25 8.25C9.41667 7.08333 10.8333 6.5 12.5 6.5C14.1667 6.5 15.5833 7.08333 16.75 8.25C17.9167 9.41667 18.5 10.8333 18.5 12.5C18.5 13.2 18.3877 13.8627 18.163 14.488C17.9383 15.1133 17.634 15.6757 17.25 16.175C17.0833 16.3917 16.8583 16.5043 16.575 16.513C16.2917 16.5217 16.05 16.4257 15.85 16.225C15.6667 16.0417 15.571 15.8083 15.563 15.525C15.555 15.2417 15.634 14.9833 15.8 14.75C16.0167 14.4167 16.1877 14.0627 16.313 13.688C16.4383 13.3133 16.5007 12.9173 16.5 12.5C16.5 11.4 16.1083 10.4583 15.325 9.675C14.5417 8.89167 13.6 8.5 12.5 8.5C11.4 8.5 10.4583 8.89167 9.675 9.675C8.89167 10.4583 8.5 11.4 8.5 12.5C8.5 12.9333 8.56267 13.3333 8.688 13.7C8.81333 14.0667 8.984 14.4167 9.2 14.75C9.36667 14.9833 9.446 15.2377 9.438 15.513C9.43 15.7883 9.334 16.0173 9.15 16.2Z" fill="#E32120"/>
</svg>
