<svg width="19" height="21" viewBox="0 0 19 21" fill="none" xmlns="http://www.w3.org/2000/svg">
<path d="M11.5 13.5H4.5V15.5H11.5M16.5 18.5H2.5V7.5H16.5M16.5 2.5H15.5V0.5H13.5V2.5H5.5V0.5H3.5V2.5H2.5C1.96957 2.5 1.46086 2.71071 1.08579 3.08579C0.710714 3.46086 0.5 3.96957 0.5 4.5V18.5C0.5 19.0304 0.710714 19.5391 1.08579 19.9142C1.46086 20.2893 1.96957 20.5 2.5 20.5H16.5C17.0304 20.5 17.5391 20.2893 17.9142 19.9142C18.2893 19.5391 18.5 19.0304 18.5 18.5V4.5C18.5 3.96957 18.2893 3.46086 17.9142 3.08579C17.5391 2.71071 17.0304 2.5 16.5 2.5ZM14.5 9.5H4.5V11.5H14.5V9.5Z" fill="#E32120"/>
</svg>
