<svg width="17" height="17" viewBox="0 0 17 17" fill="none" xmlns="http://www.w3.org/2000/svg">
<path d="M0.833252 14.25C0.833252 13.2333 1.23712 12.2583 1.95601 11.5394C2.6749 10.8205 3.64992 10.4167 4.66659 10.4167H12.3333C13.3499 10.4167 14.3249 10.8205 15.0438 11.5394C15.7627 12.2583 16.1666 13.2333 16.1666 14.25C16.1666 14.7583 15.9647 15.2458 15.6052 15.6053C15.2458 15.9647 14.7583 16.1667 14.2499 16.1667H2.74992C2.24159 16.1667 1.75408 15.9647 1.39463 15.6053C1.03519 15.2458 0.833252 14.7583 0.833252 14.25Z" fill="#796C6C" stroke="#796C6C" stroke-linejoin="round"/>
<path d="M8.5 6.58334C10.0878 6.58334 11.375 5.29615 11.375 3.70834C11.375 2.12052 10.0878 0.833336 8.5 0.833336C6.91218 0.833336 5.625 2.12052 5.625 3.70834C5.625 5.29615 6.91218 6.58334 8.5 6.58334Z" stroke="#796C6C"/>
</svg>
