<svg width="233" height="91" viewBox="0 0 233 91" fill="none" xmlns="http://www.w3.org/2000/svg">
<g clip-path="url(#clip0_8_1086)">
<path d="M90.3953 29.6351C92.8662 29.1162 95.5459 30.9511 95.8962 33.2661C96.3189 36.0594 93.5466 38.205 91.3019 39.5277C88.832 40.983 86.1522 42.2832 84.7921 44.8275C83.6168 47.0263 83.4464 49.7035 84.4129 51.9975C86.2836 56.4377 91.6315 57.9658 95.1806 60.9322C96.0484 61.6576 96.8183 62.4836 97.3759 63.442C98.1077 64.7001 98.4072 66.1356 98.3383 67.5597C98.1978 70.4589 96.5149 73.0465 94.2301 74.9395C91.8773 76.8889 88.6652 77.8703 86.6752 80.2068C85.8218 81.2087 85.1755 82.4755 85.2718 83.7846C85.3552 84.9174 85.9579 86.0337 86.9519 86.7049C87.4361 87.0318 87.9943 87.2149 88.5893 87.2555C88.9528 87.2802 88.9511 86.7522 88.5893 86.7276C87.2928 86.6392 86.3287 85.6129 85.9805 84.5042C85.5751 83.2131 86.0708 81.8848 86.8799 80.8238C87.8015 79.6153 89.1271 78.7596 90.4608 77.9878C91.8125 77.2056 93.1868 76.4662 94.401 75.4992C96.6755 73.6877 98.4118 71.2244 98.8189 68.4242C99.0254 67.004 98.8991 65.5271 98.3556 64.1804C97.9192 63.099 97.2291 62.1309 96.3844 61.2896C94.7286 59.6401 92.5917 58.4964 90.5837 57.2683C88.5744 56.0394 86.5187 54.6558 85.3516 52.64C84.0726 50.4309 84.0335 47.6379 85.1441 45.3617C85.7387 44.1432 86.6478 43.1381 87.7666 42.3065C88.9851 41.4008 90.3658 40.7086 91.6768 39.9308C93.9601 38.5762 96.4129 36.5959 96.4953 33.8655C96.5652 31.5522 94.4611 29.4607 92.0693 29.0828C91.4594 28.9864 90.8485 28.9993 90.2447 29.126C89.8894 29.2006 90.0398 29.7097 90.3953 29.6351Z" fill="#3F3D56"/>
<path d="M150.153 29.8697C147.682 29.3508 145.002 31.1857 144.652 33.5007C144.229 36.294 147.002 38.4396 149.246 39.7623C151.716 41.2176 154.396 42.5179 155.756 45.0621C156.932 47.2609 157.102 49.9381 156.135 52.2321C154.265 56.6723 148.917 58.2004 145.368 61.1669C144.5 61.8922 143.73 62.7182 143.172 63.6767C142.441 64.9347 142.141 66.3702 142.21 67.7944C142.351 70.6936 144.033 73.2811 146.318 75.1741C148.671 77.1235 151.883 78.1049 153.873 80.4414C154.726 81.4433 155.373 82.7101 155.277 84.0192C155.193 85.152 154.59 86.2683 153.596 86.9395C153.112 87.2665 152.554 87.4495 151.959 87.4901C151.596 87.5149 151.597 86.9868 151.959 86.9622C153.255 86.8738 154.22 85.8475 154.568 84.7388C154.973 83.4477 154.478 82.1194 153.668 81.0584C152.747 79.8499 151.421 78.9942 150.088 78.2224C148.736 77.4402 147.362 76.7008 146.147 75.7338C143.873 73.9223 142.137 71.4591 141.729 68.6589C141.523 67.2386 141.649 65.7617 142.193 64.4151C142.629 63.3337 143.319 62.3656 144.164 61.5242C145.82 59.8747 147.957 58.731 149.965 57.503C151.974 56.2741 154.03 54.8904 155.197 52.8746C156.476 50.6655 156.515 47.8725 155.404 45.5964C154.81 44.3778 153.901 43.3727 152.782 42.5411C151.563 41.6355 150.183 40.9432 148.871 40.1654C146.588 38.8108 144.135 36.8305 144.053 34.1001C143.983 31.7868 146.087 29.6953 148.479 29.3174C149.089 29.221 149.7 29.2339 150.304 29.3606C150.659 29.4352 150.509 29.9443 150.153 29.8697Z" fill="#3F3D56"/>
<path d="M189.975 14.7145L188.808 22.1707L182.426 22.2947V15.7893L189.975 14.7145Z" fill="#FFB6B6"/>
<path opacity="0.1" d="M189.975 14.7145L188.91 22.4054L182.528 22.5293V16.024L189.975 14.7145Z" fill="black"/>
<path d="M27.8038 90.2776H30.064L30.064 56.1865H27.8038L27.8038 90.2776Z" fill="#898282"/>
<path d="M36.8444 90.2776H39.1045L39.1045 56.1865H36.8444L36.8444 90.2776Z" fill="#898282"/>
<path d="M50.9367 90.2776H53.1968L53.1968 56.1865H50.9367L50.9367 90.2776Z" fill="#898282"/>
<path d="M55.1911 90.2776H57.4512L57.4512 56.1865H55.1911L55.1911 90.2776Z" fill="#898282"/>
<path d="M26.6073 55.6907L23.5317 40.7965C22.9663 38.0582 25.0081 35.4468 27.9769 35.1113L44.4223 33.2526C44.4223 33.2526 46.6824 50.4841 46.6824 49.6163C46.6824 48.7485 69.0842 51.7857 60.7085 56.1246C52.3327 60.4634 29.7316 59.2238 26.6073 55.6907Z" fill="#898282"/>
<path d="M63.2419 81.1095L66.0269 83.7064L69.8729 85.5614L69.4751 88.7766L62.1809 88.0346L61.2525 86.3033L61.5178 84.8194L60.9873 82.4698L63.2419 81.1095Z" fill="#A0616A"/>
<path d="M68.9444 87.54L69.1721 84.8118L77.0343 88.282C77.0343 88.282 77.6431 89.8896 75.7472 90.137C73.8513 90.3843 61.2523 90.3843 61.2523 89.766C61.2523 89.1476 60.9077 85.9821 60.9077 85.9821L68.5465 88.0347L68.9444 87.54Z" fill="#2F2E41"/>
<path d="M53.2247 73.8963L51.2103 77.0522L50.2281 80.9846L46.788 81.4158L45.7651 74.6408L47.3364 73.3759L48.9442 73.2506L51.2562 72.1932L53.2247 73.8963Z" fill="#A0616A"/>
<path d="M47.9429 80.6322L50.835 80.167L49.1615 88.1264C49.1615 88.1264 47.6402 89.0721 46.9167 87.4195C46.1933 85.7668 43.0943 74.3797 43.7371 74.2277C44.3798 74.0756 47.5856 72.9855 47.5856 72.9855L47.3309 80.3943L47.9429 80.6322Z" fill="#2F2E41"/>
<path d="M44.4887 14.8434L44.0898 22.4054L50.4713 22.5294V16.024L44.4887 14.8434Z" fill="#A0616A"/>
<path opacity="0.1" d="M44.4887 14.8434L44.0898 22.4054L50.4713 22.5294V16.024L44.4887 14.8434Z" fill="black"/>
<path d="M33.7199 46.0833C33.7199 46.0833 30.795 53.1494 32.9222 56.0007C35.0494 58.8519 45.0205 60.4635 45.0205 60.4635L49.1419 64.0586L60.0436 83.6455L66.4251 82.2818L57.3847 62.199C57.3847 62.199 52.0667 54.1411 50.0725 53.0254C48.0783 51.9097 44.3649 47.7207 44.3649 47.7207L33.7199 46.0833Z" fill="#2F2E41"/>
<path d="M51.8009 46.703L55.8963 49.4074C55.8963 49.4074 70.4137 53.0254 65.7605 61.4552C61.1073 69.885 54.194 75.9594 54.194 75.9594L48.0784 72.7362L57.9165 59.8436L40.6333 50.0501L51.8009 46.703Z" fill="#2F2E41"/>
<path d="M89.0251 36.4234C90.9496 36.7845 92.3098 38.003 92.0631 39.145C91.8165 40.287 90.0567 40.9198 88.1316 40.5583C87.3605 40.4238 86.6351 40.119 86.0162 39.6695L77.8828 38.0437L78.5805 35.0463L86.7049 36.4799C87.4624 36.2886 88.258 36.2692 89.0251 36.4234Z" fill="#A0616A"/>
<path d="M58.3125 55.793C59.7191 57.0698 60.1527 58.7815 59.2811 59.6161C58.4095 60.4507 56.5631 60.092 55.1562 58.8145C54.5866 58.3114 54.1546 57.6885 53.8963 56.9978L48.0098 51.5176L50.3398 49.3525L56.3306 54.6668C57.0782 54.8892 57.7578 55.2754 58.3125 55.793Z" fill="#A0616A"/>
<path d="M50.1392 19.7401H41.8661L35.7809 23.5831L36.3127 38.7071C36.3127 38.7071 37.4246 42.5051 33.6537 46.0212C31.3936 48.1287 32.1913 49.3684 32.1913 49.3684L45.619 50.3601L53.6624 48.1907L50.7375 41.3725L51.2693 39.265C51.2693 39.265 56.7202 35.6699 55.7895 31.9509C54.8589 28.2319 53.6624 20.5459 53.6624 20.5459L50.1392 19.7401Z" fill="#CCCCCC"/>
<path d="M44.356 41.9923L38.3734 23.6451C38.3734 23.6451 35.3156 22.6534 33.9861 25.1327C32.6566 27.6121 34.3289 37.0956 34.3289 37.0956L41.2982 47.8188L52.4659 55.7527L55.2578 52.9015L44.356 41.9923Z" fill="#CCCCCC"/>
<path d="M69.6031 32.5298L53.555 20.5375C53.555 20.5375 50.4307 21.329 50.8349 24.0752C51.2391 26.8215 58.3622 33.7679 58.3622 33.7679L70.6078 38.9485L84.6292 39.6165L85.2068 35.7933L69.6031 32.5298Z" fill="#CCCCCC"/>
<path d="M48.2777 18.3764C51.3615 18.3764 53.8615 16.0453 53.8615 13.1698C53.8615 10.2942 51.3615 7.96313 48.2777 7.96313C45.1938 7.96313 42.6938 10.2942 42.6938 13.1698C42.6938 16.0453 45.1938 18.3764 48.2777 18.3764Z" fill="#A0616A"/>
<path d="M205.196 56.1865H202.936V90.2776H205.196V56.1865Z" fill="#898282"/>
<path d="M196.155 56.1865H193.895V90.2776H196.155V56.1865Z" fill="#898282"/>
<path d="M182.063 56.1865H179.803V90.2776H182.063V56.1865Z" fill="#898282"/>
<path d="M177.808 56.1865H175.548V90.2776H177.808V56.1865Z" fill="#898282"/>
<path d="M206.393 55.6907L209.468 40.7965C210.034 38.0582 207.992 35.4468 205.023 35.1113L188.578 33.2526C188.578 33.2526 186.317 50.4841 186.317 49.6163C186.317 48.7485 163.916 51.7857 172.291 56.1246C180.667 60.4634 203.268 59.2238 206.393 55.6907Z" fill="#898282"/>
<path d="M169.758 81.1095L166.973 83.7064L163.127 85.5614L163.525 88.7766L170.819 88.0346L171.747 86.3033L171.482 84.8194L172.013 82.4698L169.758 81.1095Z" fill="#FFB6B6"/>
<path d="M164.055 87.54L163.827 84.8118L155.965 88.282C155.965 88.282 155.356 89.8896 157.252 90.137C159.148 90.3843 171.747 90.3843 171.747 89.766C171.747 89.1476 172.092 85.9821 172.092 85.9821L164.453 88.0347L164.055 87.54Z" fill="#2F2E41"/>
<path d="M163.169 63.7467L161.53 67.0863L158.62 70.0755L160.195 72.9594L166.754 69.892L166.976 67.9675L166.173 66.663L165.791 64.2884L163.169 63.7467Z" fill="#FFB6B6"/>
<path d="M160.23 71.628L158.996 69.1451L152.925 74.9542C152.925 74.9542 152.956 76.6588 154.825 76.2741C156.695 75.8894 168.503 71.7922 168.271 71.2127C168.04 70.6332 167.179 67.5543 167.179 67.5543L160.788 71.9622L160.23 71.628Z" fill="#2F2E41"/>
<path d="M199.279 46.0833C199.279 46.0833 202.204 53.1494 200.077 56.0007C197.95 58.8519 187.979 60.4635 187.979 60.4635L183.857 64.0586L172.956 83.6455L166.574 82.2818L175.615 62.199C175.615 62.199 180.933 54.1411 182.927 53.0254C184.921 51.9097 188.634 47.7207 188.634 47.7207L199.279 46.0833Z" fill="#2F2E41"/>
<path d="M187.969 49.3775L183.255 47.7737C183.255 47.7737 171.809 38.6949 167.018 47.0572C162.226 55.4194 160.798 64.1761 160.798 64.1761L167.119 67.0346L172.899 52.1577L191.366 59.8469L187.969 49.3775Z" fill="#2F2E41"/>
<path d="M161.391 54.0634C160.127 55.4642 159.878 57.2076 160.834 57.9573C161.79 58.7071 163.59 58.1792 164.854 56.7778C165.367 56.2245 165.73 55.5646 165.914 54.8534L171.188 48.8554L168.639 46.9167L163.243 52.7593C162.523 53.0498 161.888 53.497 161.391 54.0634Z" fill="#FFB6B6"/>
<path d="M174.687 55.793C173.28 57.0698 172.847 58.7815 173.718 59.6161C174.59 60.4507 176.436 60.092 177.843 58.8145C178.413 58.3114 178.845 57.6885 179.103 56.9978L184.99 51.5176L182.66 49.3525L176.669 54.6668C175.921 54.8892 175.242 55.2754 174.687 55.793Z" fill="#FFB6B6"/>
<path d="M182.861 19.7401H191.134L197.219 23.5831L196.687 38.7071C196.687 38.7071 195.575 42.5051 199.346 46.0212C201.606 48.1287 200.809 49.3684 200.809 49.3684L187.381 50.3601L179.338 48.1907L182.262 41.3725L181.731 39.265C181.731 39.265 176.28 35.6699 177.21 31.9509C178.141 28.2319 179.338 20.5459 179.338 20.5459L182.861 19.7401Z" fill="#E32120"/>
<path d="M188.644 41.9923L194.627 23.6451C194.627 23.6451 197.684 22.6534 199.014 25.1327C200.343 27.6121 198.671 37.0956 198.671 37.0956L191.702 47.8188L180.534 55.7527L177.742 52.9015L188.644 41.9923Z" fill="#E32120"/>
<path d="M173.977 39.7317L178.512 21.0272C178.512 21.0272 181.485 19.8306 183.004 22.2131C184.524 24.5957 183.596 34.1676 183.596 34.1676L177.482 45.3352L166.963 54.0059L163.956 51.3517L173.977 39.7317Z" fill="#E32120"/>
<path d="M90.0788 29.9655H88.3174V90.0307H90.0788V29.9655Z" fill="#3F3D56"/>
<path d="M88.7449 38.3141L72.7666 26.117L73.1703 25.8365L89.1486 38.0336L88.7449 38.3141Z" fill="#3F3D56"/>
<path d="M89.5757 31.0213H88.5692C86.8348 31.0213 85.4238 29.7056 85.4238 28.0884V20.111C85.4238 18.4938 86.8348 17.1781 88.5692 17.1781H89.5757C91.31 17.1781 92.721 18.4938 92.721 20.111V28.0884C92.721 29.7056 91.31 31.0213 89.5757 31.0213Z" fill="#E32120"/>
<path d="M72.5911 30.4347C75.1621 30.4347 77.2462 27.2308 77.2462 23.2785C77.2462 19.3263 75.1621 16.1223 72.5911 16.1223C70.0202 16.1223 67.936 19.3263 67.936 23.2785C67.936 27.2308 70.0202 30.4347 72.5911 30.4347Z" fill="#E32120"/>
<path d="M89.3239 27.3846C86.6259 27.3846 81.5234 27.0413 81.5234 25.7421C81.5234 25.1042 82.7341 24.6311 85.1219 24.3357L85.188 24.8009C82.6075 25.1203 82.0267 25.5994 82.0267 25.7421C82.0267 26.1404 84.6023 26.9153 89.3239 26.9153C94.0454 26.9153 96.621 26.1404 96.621 25.7421C96.621 25.5417 95.7325 25.0344 92.9861 24.747L93.0421 24.2805C94.9044 24.4755 97.1243 24.8873 97.1243 25.7421C97.1243 27.0413 92.0219 27.3846 89.3239 27.3846Z" fill="#3F3D56"/>
<path d="M149.967 90.0308H151.728V29.9655H149.967V90.0308Z" fill="#3F3D56"/>
<path d="M151.301 38.3141L167.279 26.117L166.875 25.8365L150.897 38.0336L151.301 38.3141Z" fill="#3F3D56"/>
<path d="M147.324 28.0884V20.111C147.324 18.4938 148.735 17.1781 150.47 17.1781H151.476C153.21 17.1781 154.621 18.4938 154.621 20.111V28.0884C154.621 29.7056 153.21 31.0213 151.476 31.0213H150.47C148.735 31.0213 147.324 29.7056 147.324 28.0884Z" fill="#E32120"/>
<path d="M167.454 30.4347C170.025 30.4347 172.11 27.2308 172.11 23.2785C172.11 19.3263 170.025 16.1223 167.454 16.1223C164.883 16.1223 162.799 19.3263 162.799 23.2785C162.799 27.2308 164.883 30.4347 167.454 30.4347Z" fill="#E32120"/>
<path d="M150.721 27.3846C148.023 27.3846 142.921 27.0413 142.921 25.7421C142.921 24.8873 145.141 24.4755 147.003 24.2805L147.059 24.747C144.313 25.0344 143.424 25.5417 143.424 25.7421C143.424 26.1404 146 26.9153 150.721 26.9153C155.443 26.9153 158.019 26.1404 158.019 25.7421C158.019 25.5994 157.438 25.1203 154.857 24.8009L154.923 24.3357C157.311 24.6311 158.522 25.1042 158.522 25.7421C158.522 27.0413 153.419 27.3846 150.721 27.3846Z" fill="#3F3D56"/>
<path d="M185.703 17.7206C188.986 17.7206 191.648 15.2388 191.648 12.1775C191.648 9.11612 188.986 6.6344 185.703 6.6344C182.42 6.6344 179.758 9.11612 179.758 12.1775C179.758 15.2388 182.42 17.7206 185.703 17.7206Z" fill="#FFB6B6"/>
<path d="M186.178 4.72522C186.005 4.81885 185.775 4.6772 185.72 4.49874C185.665 4.32028 185.729 4.1308 185.793 3.95484L186.113 3.06901C186.341 2.44076 186.582 1.79056 187.075 1.31238C187.819 0.590647 189 0.40704 190.064 0.540056C191.43 0.710874 192.778 1.40065 193.413 2.5413C194.049 3.68194 193.778 5.27354 192.63 5.98519C194.266 7.7335 194.837 9.68192 194.747 12.0006C194.656 14.3193 191.947 16.4532 190.179 18.0866C189.785 17.8635 189.426 16.8182 189.643 16.4384C189.86 16.0586 189.549 15.6187 189.818 15.2689C190.087 14.919 190.312 15.476 190.04 15.1282C189.868 14.9087 190.538 14.4038 190.283 14.2725C189.05 13.6371 188.64 12.2043 187.866 11.1072C186.932 9.78377 185.334 8.88757 183.642 8.73888C182.71 8.65698 181.726 8.80532 180.963 9.30972C180.199 9.81411 179.704 10.7155 179.881 11.5724C179.423 11.1381 179.194 10.5017 179.281 9.89753C179.367 9.29335 179.765 8.73466 180.33 8.42719C179.987 7.36902 180.281 6.15181 181.077 5.33296C181.874 4.51411 185.105 4.65357 186.267 4.86908" fill="#2F2E41"/>
<path d="M186.358 8.771C187.898 8.92602 189.01 10.17 189.949 11.3188C190.49 11.981 191.057 12.7122 191.044 13.5447C191.03 14.3863 190.426 15.1082 190.138 15.9058C189.667 17.2095 190.126 18.7606 191.248 19.6539C190.139 19.8501 188.941 19.0749 188.749 18.0377C188.526 16.8304 189.508 15.6651 189.392 14.4447C189.289 13.3696 188.381 12.5422 187.608 11.7383C186.836 10.9345 186.11 9.86778 186.466 8.84056" fill="#2F2E41"/>
<path d="M45.4157 4.45305C45.4157 4.45305 43.1774 2.94567 41.1877 6.19234C39.8287 8.41007 39.1078 12.6296 38.7874 15.0814C38.64 16.2098 39.2674 17.3026 40.3547 17.8167L47.4054 21.1502C47.4054 21.1502 44.794 11.874 48.4002 10.4826C52.0064 9.09115 51.882 9.43901 51.882 9.43901C51.882 9.43901 54.7421 15.2366 51.0116 17.7876L54.1204 19.6428C54.1204 19.6428 56.2344 8.74329 52.3795 6.65615C48.5245 4.569 49.395 3.06162 45.4157 4.45305Z" fill="#2F2E41"/>
<path d="M232.248 90.5H0.5V90.0308H232.248C232.387 90.0308 232.5 90.1358 232.5 90.2654C232.5 90.395 232.387 90.5 232.248 90.5Z" fill="#3F3D56"/>
</g>
<defs>
<clipPath id="clip0_8_1086">
<rect width="232" height="90" fill="white" transform="translate(0.5 0.5)"/>
</clipPath>
</defs>
</svg>
