<svg width="53" height="41" viewBox="0 0 53 41" fill="none" xmlns="http://www.w3.org/2000/svg">
<g clip-path="url(#clip0_1_807)">
<path d="M25.0147 0.58328L23.4235 1.2986L3.81969 10.1116L2.2285 10.8269C1.45641 11.1749 0.883389 11.7611 0.635167 12.4568C0.386946 13.1524 0.48379 13.9009 0.904453 14.5378L15.503 36.5826C15.9254 37.2187 16.6368 37.6909 17.4811 37.8954C18.3255 38.0999 19.2338 38.0201 20.0069 37.6735L20.011 37.6717L42.789 27.4317L42.7931 27.4299C43.5652 27.0819 44.1382 26.4957 44.3864 25.8C44.6346 25.1043 44.5378 24.3559 44.1171 23.719L29.5186 1.67421C29.0962 1.03806 28.3848 0.565932 27.5405 0.361413C26.6961 0.156895 25.7878 0.236685 25.0147 0.58328Z" fill="#F2F2F2"/>
<path d="M25.473 1.27488L23.5884 2.12213L4.57142 10.6712L2.68679 11.5185C2.13696 11.7663 1.7289 12.1837 1.55214 12.6792C1.37537 13.1746 1.44434 13.7075 1.7439 14.1611L16.3424 36.2059C16.6432 36.6589 17.1498 36.9951 17.7511 37.1408C18.3524 37.2864 18.9992 37.2296 19.5497 36.9827L19.5539 36.9809L42.3318 26.741L42.336 26.7391C42.8858 26.4913 43.2938 26.0739 43.4706 25.5785C43.6474 25.0831 43.5784 24.5501 43.2788 24.0965L28.6803 2.05176C28.3795 1.59874 27.8729 1.26253 27.2717 1.11689C26.6704 0.971244 26.0235 1.02806 25.473 1.27488Z" fill="#E32120"/>
<path d="M25.7872 8.11761L17.2919 11.9367C17.1632 11.9946 17.0119 12.0079 16.8712 11.9738C16.7306 11.9398 16.6121 11.8611 16.5419 11.755C16.4717 11.649 16.4555 11.5243 16.4968 11.4084C16.5382 11.2925 16.6337 11.1949 16.7624 11.1371L25.2577 7.31797C25.3864 7.26012 25.5377 7.24675 25.6784 7.28082C25.819 7.31489 25.9375 7.3936 26.0077 7.49964C26.078 7.60568 26.0942 7.73036 26.0528 7.84625C26.0115 7.96214 25.9159 8.05975 25.7872 8.11761Z" fill="#F2F2F2"/>
<path d="M28.6825 8.56707L18.1855 13.286C18.0568 13.3439 17.9055 13.3572 17.7648 13.3232C17.6241 13.2891 17.5057 13.2104 17.4355 13.1044C17.3652 12.9983 17.349 12.8736 17.3904 12.7577C17.4317 12.6419 17.5272 12.5442 17.6559 12.4864L28.1529 7.76743C28.2167 7.73879 28.2866 7.72076 28.3588 7.71439C28.431 7.70801 28.504 7.71341 28.5736 7.73028C28.6433 7.74715 28.7082 7.77516 28.7647 7.8127C28.8212 7.85025 28.8682 7.8966 28.903 7.9491C28.9377 8.00161 28.9596 8.05924 28.9673 8.11871C28.9751 8.17818 28.9685 8.23833 28.9481 8.29571C28.9276 8.35309 28.8936 8.40659 28.848 8.45315C28.8025 8.49971 28.7462 8.53842 28.6825 8.56707Z" fill="#F2F2F2"/>
<path d="M13.7995 10.347L5.96732 13.8679C5.90567 13.8957 5.85991 13.9424 5.8401 13.998C5.82029 14.0535 5.82805 14.1132 5.86168 14.164L9.19683 19.2003C9.23048 19.2511 9.28725 19.2888 9.35464 19.3052C9.42203 19.3215 9.49453 19.3151 9.5562 19.2874L17.3884 15.7664C17.45 15.7387 17.4958 15.6919 17.5156 15.6364C17.5354 15.5809 17.5277 15.5211 17.494 15.4703L14.1589 10.434C14.1252 10.3832 14.0685 10.3455 14.0011 10.3292C13.9337 10.3129 13.8612 10.3192 13.7995 10.347Z" fill="#F2F2F2"/>
<path d="M30.0025 14.5079L18.4797 19.688C18.4159 19.7166 18.346 19.7347 18.2738 19.741C18.2016 19.7474 18.1286 19.742 18.059 19.7251C17.9893 19.7083 17.9244 19.6803 17.8679 19.6427C17.8114 19.6052 17.7644 19.5588 17.7296 19.5063C17.6949 19.4538 17.673 19.3962 17.6653 19.3367C17.6575 19.2772 17.6641 19.2171 17.6846 19.1597C17.705 19.1023 17.739 19.0488 17.7846 19.0023C17.8302 18.9557 17.8864 18.917 17.9501 18.8884L29.473 13.7082C29.6017 13.6504 29.753 13.637 29.8936 13.6711C30.0343 13.7051 30.1528 13.7839 30.223 13.8899C30.2932 13.9959 30.3094 14.1206 30.2681 14.2365C30.2267 14.3524 30.1312 14.45 30.0025 14.5079Z" fill="#F2F2F2"/>
<path d="M32.8977 14.9573L19.3732 21.0373C19.2445 21.0952 19.0932 21.1085 18.9525 21.0745C18.8119 21.0404 18.6934 20.9617 18.6232 20.8556C18.553 20.7496 18.5368 20.6249 18.5781 20.509C18.6195 20.3931 18.715 20.2955 18.8437 20.2377L32.3682 14.1577C32.4969 14.0998 32.6482 14.0865 32.7889 14.1205C32.9295 14.1546 33.048 14.2333 33.1182 14.3394C33.1885 14.4454 33.2047 14.5701 33.1633 14.686C33.122 14.8019 33.0264 14.8995 32.8977 14.9573Z" fill="#F2F2F2"/>
<path d="M14.0911 23.9304C15.3863 23.9304 16.4363 23.0653 16.4363 21.9981C16.4363 20.9309 15.3863 20.0658 14.0911 20.0658C12.7958 20.0658 11.7458 20.9309 11.7458 21.9981C11.7458 23.0653 12.7958 23.9304 14.0911 23.9304Z" fill="#F2F2F2"/>
<path d="M49.1804 9.66724H23.2231C22.343 9.66805 21.4992 9.95647 20.8769 10.4692C20.2546 10.982 19.9046 11.6772 19.9036 12.4023V37.515C19.9046 38.2401 20.2546 38.9353 20.8769 39.4481C21.4992 39.9608 22.343 40.2492 23.2231 40.25H49.1804C50.0605 40.2492 50.9042 39.9608 51.5265 39.4481C52.1489 38.9353 52.4989 38.2401 52.4999 37.515V12.4023C52.4989 11.6772 52.1489 10.982 51.5265 10.4692C50.9042 9.95647 50.0605 9.66805 49.1804 9.66724Z" fill="#E6E6E6"/>
<path d="M49.1806 10.4546H23.2233C22.5966 10.4552 21.9957 10.6606 21.5525 11.0257C21.1094 11.3908 20.8601 11.8859 20.8594 12.4023V37.515C20.8601 38.0314 21.1094 38.5264 21.5525 38.8916C21.9957 39.2567 22.5966 39.4621 23.2233 39.4627H49.1806C49.8073 39.4621 50.4082 39.2567 50.8514 38.8916C51.2945 38.5264 51.5438 38.0314 51.5445 37.515V12.4023C51.5438 11.8859 51.2945 11.3908 50.8514 11.0257C50.4082 10.6606 49.8073 10.4552 49.1806 10.4546Z" fill="#E32120"/>
<path d="M45.4784 16.5854H35.8008C35.6542 16.5854 35.5136 16.5374 35.41 16.452C35.3063 16.3665 35.248 16.2507 35.248 16.1299C35.248 16.0091 35.3063 15.8933 35.41 15.8078C35.5136 15.7224 35.6542 15.6744 35.8008 15.6744H45.4784C45.5511 15.6744 45.623 15.6861 45.6902 15.709C45.7573 15.7318 45.8183 15.7654 45.8697 15.8077C45.9211 15.85 45.9619 15.9002 45.9897 15.9555C46.0175 16.0108 46.0318 16.07 46.0318 16.1299C46.0318 16.1898 46.0175 16.249 45.9897 16.3043C45.9619 16.3596 45.9211 16.4098 45.8697 16.4521C45.8183 16.4944 45.7573 16.528 45.6902 16.5508C45.623 16.5737 45.5511 16.5854 45.4784 16.5854Z" fill="#FF4000"/>
<path d="M47.7587 18.1225H35.8008C35.6542 18.1225 35.5136 18.0745 35.41 17.9891C35.3063 17.9036 35.248 17.7878 35.248 17.667C35.248 17.5462 35.3063 17.4304 35.41 17.3449C35.5136 17.2595 35.6542 17.2115 35.8008 17.2115H47.7587C47.9053 17.2115 48.0459 17.2595 48.1496 17.3449C48.2532 17.4304 48.3115 17.5462 48.3115 17.667C48.3115 17.7878 48.2532 17.9036 48.1496 17.9891C48.0459 18.0745 47.9053 18.1225 47.7587 18.1225Z" fill="#FF4000"/>
<path d="M33.6592 13.8115H24.737C24.6668 13.8115 24.5994 13.8345 24.5498 13.8755C24.5001 13.9164 24.4722 13.9719 24.4722 14.0298V19.767C24.4722 19.8248 24.5001 19.8803 24.5498 19.9213C24.5994 19.9622 24.6668 19.9852 24.737 19.9852H33.6592C33.7295 19.9852 33.7968 19.9622 33.8465 19.9213C33.8961 19.8803 33.9241 19.8248 33.9241 19.767V14.0298C33.9241 13.9719 33.8961 13.9164 33.8465 13.8755C33.7968 13.8345 33.7295 13.8115 33.6592 13.8115Z" fill="#E6E6E6"/>
<path d="M27.1845 17.3345C27.1882 17.8189 26.9715 18.2868 26.5772 18.646C26.1871 18.9988 25.6063 19.2327 25.0202 19.1359C24.4805 19.0468 24.0419 18.6581 24.0967 18.188C24.1057 18.0862 24.1417 17.9872 24.2019 17.8979C24.2622 17.8087 24.3453 17.7314 24.4456 17.6714C24.5459 17.6113 24.6608 17.57 24.7824 17.5504C24.904 17.5307 25.0294 17.5331 25.1497 17.5574C25.6624 17.667 25.8667 18.2758 25.4395 18.5616C25.3369 18.6302 25.1897 18.5102 25.2931 18.441C25.5756 18.2521 25.4883 17.8389 25.1474 17.7352C24.7506 17.6146 24.3301 17.8741 24.3015 18.2084C24.2677 18.6048 24.6362 18.9032 25.0882 18.9735C25.5771 19.0495 26.0618 18.8434 26.3931 18.5588C26.7727 18.2284 26.9822 17.7896 26.9776 17.3345C26.9785 17.3124 26.9898 17.2915 27.0091 17.2761C27.0284 17.2608 27.0542 17.2522 27.081 17.2522C27.1079 17.2522 27.1337 17.2608 27.153 17.2761C27.1723 17.2915 27.1836 17.3124 27.1845 17.3345Z" fill="#2F2E41"/>
<path d="M29.205 18.4184C31.2438 18.4184 32.8966 17.0566 32.8966 15.3768C32.8966 13.697 31.2438 12.3352 29.205 12.3352C27.1662 12.3352 25.5134 13.697 25.5134 15.3768C25.5134 17.0566 27.1662 18.4184 29.205 18.4184Z" fill="#FF4000"/>
<path d="M29.0163 16.6747L29.0125 16.561C29.2691 16.5552 29.4954 16.5419 29.6654 16.4395C29.7136 16.4089 29.7532 16.37 29.7815 16.3256C29.8099 16.2812 29.8263 16.2323 29.8296 16.1822C29.8326 16.1516 29.827 16.1208 29.8132 16.0923C29.7994 16.0638 29.7778 16.0382 29.7501 16.0177C29.6373 15.9392 29.4557 15.9646 29.3233 16.0146L29.2091 16.0577L29.428 14.7397L29.5647 14.7552L29.3785 15.8763C29.5584 15.8327 29.725 15.8515 29.8392 15.9309C29.883 15.9624 29.9174 16.0019 29.9396 16.0461C29.9619 16.0904 29.9714 16.1384 29.9675 16.1862C29.9635 16.2535 29.9416 16.3193 29.9035 16.3789C29.8654 16.4385 29.8119 16.4906 29.7467 16.5313C29.5283 16.6629 29.2444 16.6694 29.0163 16.6747Z" fill="#2F2E41"/>
<path d="M30.9837 14.8518H30.2407V14.9655H30.9837V14.8518Z" fill="#2F2E41"/>
<path d="M28.6385 14.8518H27.8955V14.9655H28.6385V14.8518Z" fill="#2F2E41"/>
<path d="M27.1602 19.9852C27.4369 19.8405 27.7359 19.7272 28.0493 19.6482C28.0194 19.5606 28.0199 19.4679 28.0507 19.3805C28.0923 19.2701 28.1761 19.1738 28.2895 19.1059C28.403 19.038 28.5402 19.0021 28.6804 19.0037H29.5799C29.7204 19.0022 29.8577 19.0382 29.9714 19.1062C30.0851 19.1741 30.1692 19.2706 30.211 19.3811C30.2418 19.4683 30.2423 19.5608 30.2124 19.6482C30.5257 19.7273 30.8247 19.8406 31.1015 19.9852H27.1602Z" fill="#2F2E41"/>
<path d="M33.4337 14.248C33.3664 14.1809 33.2837 14.1254 33.1902 14.0849C33.1082 14.0496 33.0171 14.0311 32.9246 14.0309C32.7976 14.0322 32.6743 14.0664 32.5722 14.1286C32.2914 14.2923 32.0969 14.6452 32.0969 15.0539C32.0969 15.5665 32.4032 15.9916 32.8012 16.0655C32.8417 16.073 32.8831 16.0768 32.9246 16.0768C33.3806 16.0768 33.7524 15.6182 33.7524 15.0539C33.7524 14.7265 33.6275 14.435 33.4337 14.248Z" fill="#3F3D56"/>
<path d="M25.8517 14.1042H25.851C25.7588 14.057 25.6526 14.0317 25.544 14.0309C25.4515 14.0311 25.3605 14.0496 25.2785 14.0849C25.185 14.1254 25.1022 14.1809 25.035 14.248L25.0343 14.2485C24.8412 14.4355 24.7163 14.7271 24.7163 15.0539C24.7163 15.4949 24.9425 15.8711 25.2598 16.0149C25.3467 16.055 25.4445 16.0763 25.544 16.0768C25.5662 16.0768 25.5883 16.0757 25.6102 16.0734H25.6109C26.0358 16.0314 26.3718 15.5904 26.3718 15.0539C26.3718 14.6242 26.1559 14.2554 25.8517 14.1042Z" fill="#3F3D56"/>
<path d="M25.3117 15.9171C25.3281 15.9171 25.3443 15.9139 25.3589 15.9077C25.3735 15.9015 25.3862 15.8926 25.3957 15.8816C25.4053 15.8706 25.4116 15.8579 25.414 15.8445C25.4165 15.8311 25.415 15.8174 25.4098 15.8046C25.212 15.3201 25.1525 14.8046 25.2359 14.298C25.3193 13.7915 25.5434 13.3077 25.8906 12.8841C26.2379 12.4605 26.699 12.1086 27.2382 11.8557C27.7773 11.6028 28.38 11.4558 28.9993 11.426C29.6187 11.3962 30.238 11.4845 30.8092 11.684C31.3804 11.8835 31.8881 12.1889 32.2928 12.5763C32.6975 12.9637 32.9883 13.4229 33.1426 13.918C33.2969 14.4131 33.3106 14.9308 33.1826 15.431C33.1769 15.4531 33.1822 15.4762 33.1971 15.4951C33.2121 15.514 33.2356 15.5273 33.2625 15.532C33.2893 15.5366 33.3173 15.5323 33.3403 15.52C33.3633 15.5076 33.3794 15.4883 33.3851 15.4662C33.5198 14.9403 33.5054 14.3959 33.3432 13.8754C33.181 13.3548 32.8753 12.8721 32.4499 12.4647C32.0244 12.0573 31.4906 11.7363 30.8901 11.5265C30.2895 11.3167 29.6383 11.2239 28.9872 11.2552C28.336 11.2865 27.7023 11.4411 27.1355 11.7071C26.5686 11.973 26.0838 12.343 25.7187 12.7884C25.3537 13.2338 25.1182 13.7425 25.0306 14.2751C24.943 14.8077 25.0057 15.3497 25.2137 15.8591C25.2206 15.876 25.2338 15.8907 25.2514 15.9011C25.269 15.9115 25.2901 15.9171 25.3117 15.9171Z" fill="#3F3D56"/>
<path d="M31.0595 13.4061C31.2057 13.5705 31.1336 13.7921 30.9796 13.9338C30.7792 14.1182 30.4596 14.1299 30.1821 14.0957C29.8707 14.0572 29.5404 13.937 29.2252 14.018C28.9565 14.0871 28.7648 14.2879 28.4857 14.3383C28.2381 14.383 27.9421 14.3238 27.8553 14.1064C27.8136 14.002 28.0134 13.9572 28.0548 14.0611C28.111 14.2017 28.3534 14.1989 28.4923 14.16C28.7148 14.0976 28.8864 13.9457 29.1051 13.8731C29.3631 13.7876 29.6429 13.8262 29.9055 13.8749C30.153 13.9209 30.4379 13.989 30.6844 13.9032C30.8669 13.8397 31.0121 13.6398 30.8808 13.4922C30.802 13.4035 30.9815 13.3184 31.0595 13.4061Z" fill="#2F2E41"/>
<path d="M45.4639 23.8583H32.3375C32.2649 23.8583 32.193 23.8465 32.1259 23.8236C32.0588 23.8007 31.9979 23.7672 31.9466 23.7249C31.8952 23.6826 31.8545 23.6324 31.8267 23.5771C31.799 23.5219 31.7847 23.4627 31.7847 23.4028C31.7847 23.343 31.799 23.2838 31.8267 23.2285C31.8545 23.1733 31.8952 23.1231 31.9466 23.0808C31.9979 23.0385 32.0588 23.0049 32.1259 22.9821C32.193 22.9592 32.2649 22.9474 32.3375 22.9474H45.4639C45.6104 22.9475 45.7508 22.9956 45.8544 23.081C45.9579 23.1664 46.0161 23.2821 46.0161 23.4028C46.0161 23.5236 45.9579 23.6393 45.8544 23.7247C45.7508 23.8101 45.6104 23.8582 45.4639 23.8583Z" fill="#E6E6E6"/>
<path d="M47.7443 25.3955H32.3376C32.2649 25.3956 32.193 25.3839 32.1259 25.361C32.0587 25.3382 31.9977 25.3046 31.9463 25.2623C31.8949 25.22 31.8541 25.1698 31.8263 25.1145C31.7985 25.0592 31.7842 24.9999 31.7842 24.9401C31.7842 24.8802 31.7985 24.821 31.8263 24.7657C31.8541 24.7104 31.8949 24.6601 31.9463 24.6178C31.9977 24.5755 32.0587 24.542 32.1259 24.5191C32.193 24.4963 32.2649 24.4846 32.3376 24.4846H47.7443C47.8169 24.4846 47.8889 24.4963 47.956 24.5191C48.0232 24.542 48.0842 24.5755 48.1356 24.6178C48.187 24.6601 48.2277 24.7104 48.2556 24.7657C48.2834 24.821 48.2977 24.8802 48.2977 24.9401C48.2977 24.9999 48.2834 25.0592 48.2556 25.1145C48.2277 25.1698 48.187 25.22 48.1356 25.2623C48.0842 25.3046 48.0232 25.3382 47.956 25.361C47.8889 25.3839 47.8169 25.3956 47.7443 25.3955Z" fill="#E6E6E6"/>
<path d="M45.4639 29.3832H32.3375C32.1908 29.3832 32.0502 29.3352 31.9466 29.2498C31.8429 29.1644 31.7847 29.0485 31.7847 28.9278C31.7847 28.807 31.8429 28.6911 31.9466 28.6057C32.0502 28.5203 32.1908 28.4723 32.3375 28.4723H45.4639C45.6105 28.4723 45.7511 28.5203 45.8548 28.6057C45.9584 28.6911 46.0167 28.807 46.0167 28.9278C46.0167 29.0485 45.9584 29.1644 45.8548 29.2498C45.7511 29.3352 45.6105 29.3832 45.4639 29.3832Z" fill="#E6E6E6"/>
<path d="M47.7442 30.9203H32.3375C32.1908 30.9203 32.0502 30.8723 31.9466 30.7869C31.8429 30.7015 31.7847 30.5857 31.7847 30.4649C31.7847 30.3441 31.8429 30.2282 31.9466 30.1428C32.0502 30.0574 32.1908 30.0094 32.3375 30.0094H47.7442C47.8908 30.0094 48.0314 30.0574 48.135 30.1428C48.2387 30.2282 48.2969 30.3441 48.2969 30.4649C48.2969 30.5857 48.2387 30.7015 48.135 30.7869C48.0314 30.8723 47.8908 30.9203 47.7442 30.9203Z" fill="#E6E6E6"/>
<path d="M27.1423 26.0866C28.4376 26.0866 29.4876 25.2215 29.4876 24.1543C29.4876 23.0872 28.4376 22.222 27.1423 22.222C25.8471 22.222 24.7971 23.0872 24.7971 24.1543C24.7971 25.2215 25.8471 26.0866 27.1423 26.0866Z" fill="#E6E6E6"/>
<path d="M27.1423 31.6562C28.4376 31.6562 29.4876 30.7911 29.4876 29.7239C29.4876 28.6567 28.4376 27.7916 27.1423 27.7916C25.8471 27.7916 24.7971 28.6567 24.7971 29.7239C24.7971 30.7911 25.8471 31.6562 27.1423 31.6562Z" fill="#E6E6E6"/>
<path d="M45.4639 34.9528H32.3375C32.1908 34.9528 32.0502 34.9048 31.9466 34.8194C31.8429 34.734 31.7847 34.6181 31.7847 34.4973C31.7847 34.3765 31.8429 34.2607 31.9466 34.1753C32.0502 34.0899 32.1908 34.0419 32.3375 34.0419H45.4639C45.6105 34.0419 45.7511 34.0899 45.8548 34.1753C45.9584 34.2607 46.0167 34.3765 46.0167 34.4973C46.0167 34.6181 45.9584 34.734 45.8548 34.8194C45.7511 34.9048 45.6105 34.9528 45.4639 34.9528Z" fill="#E6E6E6"/>
<path d="M47.7442 36.4899H32.3375C32.1908 36.4899 32.0502 36.4419 31.9466 36.3565C31.8429 36.2711 31.7847 36.1552 31.7847 36.0344C31.7847 35.9136 31.8429 35.7978 31.9466 35.7124C32.0502 35.627 32.1908 35.579 32.3375 35.579H47.7442C47.8908 35.579 48.0314 35.627 48.135 35.7124C48.2387 35.7978 48.2969 35.9136 48.2969 36.0344C48.2969 36.1552 48.2387 36.2711 48.135 36.3565C48.0314 36.4419 47.8908 36.4899 47.7442 36.4899Z" fill="#E6E6E6"/>
<path d="M27.1423 37.2258C28.4376 37.2258 29.4876 36.3607 29.4876 35.2935C29.4876 34.2263 28.4376 33.3612 27.1423 33.3612C25.8471 33.3612 24.7971 34.2263 24.7971 35.2935C24.7971 36.3607 25.8471 37.2258 27.1423 37.2258Z" fill="#E6E6E6"/>
</g>
<defs>
<clipPath id="clip0_1_807">
<rect width="52" height="40" fill="white" transform="translate(0.5 0.25)"/>
</clipPath>
</defs>
</svg>
