<svg width="21" height="22" viewBox="0 0 21 22" fill="none" xmlns="http://www.w3.org/2000/svg">
<path d="M13 10.5H14.5V14.75L17.36 16.44L16.61 17.66L13 15.5V10.5ZM14 7.5C14.69 7.5 15.37 7.6 16 7.79V3.2L13 4.36V7.57C13.33 7.5 13.66 7.5 14 7.5ZM21 14.5C21 16.3565 20.2625 18.137 18.9497 19.4497C17.637 20.7625 15.8565 21.5 14 21.5C11 21.5 8.4 19.58 7.42 16.9L6 16.4L0.66 18.47L0.5 18.5C0.367392 18.5 0.240215 18.4473 0.146447 18.3536C0.0526785 18.2598 0 18.1326 0 18V2.88C0 2.65 0.15 2.47 0.36 2.4L6 0.5L12 2.6L17.34 0.53L17.5 0.5C17.6326 0.5 17.7598 0.552679 17.8536 0.646447C17.9473 0.740215 18 0.867392 18 1V8.75C19.81 10 21 12.12 21 14.5ZM7 14.5C7 11.71 8.63 9.3 11 8.17V4.37L7 2.97V14.63V14.5ZM14 9.5C12.6739 9.5 11.4021 10.0268 10.4645 10.9645C9.52678 11.9021 9 13.1739 9 14.5C9 15.8261 9.52678 17.0979 10.4645 18.0355C11.4021 18.9732 12.6739 19.5 14 19.5C15.3261 19.5 16.5979 18.9732 17.5355 18.0355C18.4732 17.0979 19 15.8261 19 14.5C19 13.1739 18.4732 11.9021 17.5355 10.9645C16.5979 10.0268 15.3261 9.5 14 9.5ZM2 3.96V15.81L5 14.65V8.8V2.95L2 3.96Z" fill="#757575"/>
</svg>
