<svg width="49" height="49" viewBox="0 0 49 49" fill="none" xmlns="http://www.w3.org/2000/svg">
<path d="M30.5 24.5H33.5V33L39.22 36.38L37.72 38.82L30.5 34.5V24.5ZM32.5 18.5C33.88 18.5 35.24 18.7 36.5 19.08V9.9L30.5 12.22V18.64C31.16 18.5 31.82 18.5 32.5 18.5ZM46.5 32.5C46.5 36.213 45.025 39.774 42.3995 42.3995C39.774 45.025 36.213 46.5 32.5 46.5C26.5 46.5 21.3 42.66 19.34 37.3L16.5 36.3L5.82 40.44L5.5 40.5C5.23478 40.5 4.98043 40.3946 4.79289 40.2071C4.60536 40.0196 4.5 39.7652 4.5 39.5V9.26C4.5 8.8 4.8 8.44 5.22 8.3L16.5 4.5L28.5 8.7L39.18 4.56L39.5 4.5C39.7652 4.5 40.0196 4.60536 40.2071 4.79289C40.3946 4.98043 40.5 5.23478 40.5 5.5V21C44.12 23.5 46.5 27.74 46.5 32.5ZM18.5 32.5C18.5 26.92 21.76 22.1 26.5 19.84V12.24L18.5 9.44V32.76V32.5ZM32.5 22.5C29.8478 22.5 27.3043 23.5536 25.4289 25.4289C23.5536 27.3043 22.5 29.8478 22.5 32.5C22.5 35.1522 23.5536 37.6957 25.4289 39.5711C27.3043 41.4464 29.8478 42.5 32.5 42.5C35.1522 42.5 37.6957 41.4464 39.5711 39.5711C41.4464 37.6957 42.5 35.1522 42.5 32.5C42.5 29.8478 41.4464 27.3043 39.5711 25.4289C37.6957 23.5536 35.1522 22.5 32.5 22.5ZM8.5 11.42V35.12L14.5 32.8V21.1V9.4L8.5 11.42Z" fill="#E32120"/>
</svg>
