<svg width="49" height="49" viewBox="0 0 49 49" fill="none" xmlns="http://www.w3.org/2000/svg">
<path d="M24.5 26.5V4.5L40.5 12.5L24.5 20.5" stroke="#E32120" stroke-width="3" stroke-linecap="round" stroke-linejoin="round"/>
<path d="M41.6221 20.944C42.6864 24.2243 42.786 27.7413 41.909 31.0765C41.032 34.4118 39.2154 37.4249 36.6752 39.7574C34.1351 42.0899 30.9783 43.6436 27.5806 44.2337C24.1828 44.8237 20.6871 44.4253 17.5092 43.0858C14.3314 41.7463 11.6052 39.5221 9.65507 36.6778C7.70493 33.8335 6.61291 30.4889 6.50892 27.0419C6.40493 23.5948 7.29336 20.1904 9.0685 17.2338C10.8436 14.2771 13.4308 11.8926 16.5221 10.364" stroke="#E32120" stroke-width="3" stroke-linecap="round" stroke-linejoin="round"/>
<path d="M16.504 20.494C15.5018 21.8281 14.8494 23.3917 14.6061 25.0424C14.3629 26.6931 14.5365 28.3785 15.1112 29.9449C15.686 31.5114 16.6435 32.9091 17.8967 34.0108C19.1498 35.1124 20.6587 35.883 22.2859 36.2523C23.9131 36.6217 25.6068 36.5779 27.2127 36.1252C28.8187 35.6724 30.2858 34.825 31.4805 33.6602C32.6751 32.4953 33.5593 31.0501 34.0525 29.4561C34.5457 27.8621 34.6321 26.17 34.304 24.534" stroke="#E32120" stroke-width="3" stroke-linecap="round" stroke-linejoin="round"/>
</svg>
