<svg width="61" height="61" viewBox="0 0 61 61" fill="none" xmlns="http://www.w3.org/2000/svg">
<path d="M11.225 0.221988C11.6069 0.405636 11.9293 0.693421 12.1548 1.05221C12.3804 1.41099 12.5 1.82619 12.5 2.24999C12.5 4.73999 13.436 6.17399 14.609 7.91999L14.696 8.04599C15.692 9.52799 17 11.469 17 14.25C17 16.438 16.1308 18.5364 14.5836 20.0836C13.0365 21.6308 10.938 22.5 8.75 22.5C6.56196 22.5 4.46354 21.6308 2.91637 20.0836C1.36919 18.5364 0.5 16.438 0.5 14.25C0.5 13.146 0.5 11.247 1.649 8.79599C2.774 6.39599 4.913 3.63899 8.843 0.491989C9.17422 0.227041 9.57359 0.0611132 9.99505 0.0133412C10.4165 -0.0344308 10.8429 0.0378986 11.225 0.221988ZM8.75 27C11.2767 27.0043 13.7472 26.2543 15.845 24.846C16.628 27.048 17 29.976 17 33.765C17 38.901 16.31 45.069 15.185 49.995C14.627 52.443 13.934 54.702 13.109 56.397C12.7213 57.2413 12.2052 58.0206 11.579 58.707C10.961 59.34 10.01 60.015 8.75 60.015C7.49 60.015 6.539 59.34 5.924 58.707C5.29782 58.0206 4.78171 57.2413 4.394 56.397C3.566 54.699 2.873 52.443 2.315 49.992C1.14375 44.6604 0.535416 39.2206 0.5 33.762C0.5 29.976 0.872 27.048 1.655 24.846C3.75282 26.2543 6.2233 27.0043 8.75 27ZM19.952 36.231C21.3958 36.8656 22.9307 37.2686 24.5 37.425V30.75C24.5 29.4696 24.7522 28.2017 25.2422 27.0188C25.7322 25.8359 26.4503 24.7611 27.3557 23.8557C29.1842 22.0272 31.6641 21 34.25 21H40.925C40.6786 18.5444 39.8302 16.1876 38.4549 14.1384C37.0796 12.0892 35.2199 10.411 33.0408 9.25264C30.8616 8.09423 28.4304 7.49139 25.9625 7.49756C23.4946 7.50372 21.0663 8.11871 18.893 9.28799C18.426 8.30303 17.8761 7.35962 17.249 6.46799L17.099 6.24599L16.562 5.42999C19.4199 3.84921 22.6291 3.01156 25.8951 2.99394C29.161 2.97631 32.379 3.77927 35.2538 5.32911C38.1287 6.87895 40.5682 9.12603 42.3485 11.8641C44.1288 14.6022 45.1928 17.7436 45.443 21H50.75C52.0304 21 53.2982 21.2522 54.4812 21.7422C55.6641 22.2321 56.7389 22.9503 57.6443 23.8557C58.5497 24.7611 59.2678 25.8359 59.7578 27.0188C60.2478 28.2017 60.5 29.4696 60.5 30.75V47.25C60.5 48.5304 60.2478 49.7982 59.7578 50.9812C59.2678 52.1641 58.5497 53.2389 57.6443 54.1443C56.7389 55.0497 55.6641 55.7678 54.4812 56.2578C53.2982 56.7478 52.0304 57 50.75 57H34.25C31.6641 57 29.1842 55.9728 27.3557 54.1443C25.5272 52.3158 24.5 49.8358 24.5 47.25V41.943C22.8428 41.8166 21.2085 41.4789 19.637 40.938C19.787 39.348 19.895 37.764 19.952 36.231ZM50.75 25.5H45.272C44.6341 29.5866 42.7143 33.3649 39.7896 36.2896C36.865 39.2143 33.0867 41.1341 29 41.772V47.25C29 50.148 31.352 52.5 34.25 52.5H50.75C52.1424 52.5 53.4777 51.9469 54.4623 50.9623C55.4469 49.9777 56 48.6424 56 47.25V30.75C56 29.3576 55.4469 28.0222 54.4623 27.0377C53.4777 26.0531 52.1424 25.5 50.75 25.5ZM29 37.2C31.881 36.6085 34.5252 35.1846 36.6049 33.1049C38.6846 31.0252 40.1085 28.381 40.7 25.5H34.25C32.8576 25.5 31.5223 26.0531 30.5377 27.0377C29.5531 28.0222 29 29.3576 29 30.75V37.2Z" fill="#E32120"/>
</svg>
